<svg xmlns="http://www.w3.org/2000/svg" width="200" height="50" viewBox="0 0 200 50"><rect width="100%" height="100%" fill="#16a34a"/><path fill="#ffffff" d="M42.69 29.185h2.17q.6 0 1.01-.14.41-.15.65-.39.25-.24.36-.56.1-.32.1-.68 0-.37-.12-.67t-.37-.52q-.26-.21-.66-.32-.41-.11-.97-.11h-2.17zm1.83-8.22h-1.83v3.34h1.71q1.1 0 1.67-.4.56-.4.56-1.27 0-.91-.51-1.29t-1.6-.38m-3.98-1.67h3.98q1.14 0 1.94.22.81.21 1.33.61.51.4.75.97t.24 1.28q0 .41-.12.78t-.37.7q-.25.32-.64.59-.39.26-.92.44 2.38.54 2.38 2.58 0 .74-.28 1.36t-.81 1.08q-.54.45-1.32.7-.79.26-1.8.26h-4.36zm13.85 3.23q.91 0 1.66.3t1.28.84.82 1.33q.29.78.29 1.75 0 .98-.29 1.76t-.82 1.34q-.53.55-1.28.84-.75.3-1.66.3-.92 0-1.67-.3-.75-.29-1.28-.84-.54-.56-.83-1.34t-.29-1.76q0-.97.29-1.75.29-.79.83-1.33.53-.54 1.28-.84t1.67-.3m0 6.94q1.03 0 1.52-.69t.49-2.01q0-1.33-.49-2.03-.49-.69-1.52-.69-1.04 0-1.54.7t-.5 2.02.5 2.01 1.54.69m11.02-5.92-.45.71q-.08.13-.17.18t-.22.05q-.15 0-.31-.08t-.38-.18-.49-.18q-.28-.08-.65-.08-.59 0-.92.25t-.33.65q0 .26.17.44t.46.32q.28.14.64.24.36.11.73.24t.73.29q.36.17.65.42.28.25.45.6.18.35.18.85 0 .59-.22 1.09-.21.5-.62.87-.42.36-1.03.56-.61.21-1.41.21-.43 0-.83-.08-.41-.07-.78-.21t-.69-.32q-.31-.18-.55-.4l.45-.75q.09-.14.21-.21t.31-.07q.18 0 .34.1.17.11.38.23.22.12.51.22t.74.1q.35 0 .61-.08.25-.08.41-.22.17-.14.24-.32.08-.18.08-.37 0-.29-.17-.47-.18-.18-.46-.32t-.65-.24q-.36-.11-.74-.24t-.75-.3q-.36-.17-.64-.44-.29-.26-.46-.64-.17-.39-.17-.93 0-.51.2-.96.2-.46.59-.8.38-.34.96-.54.58-.21 1.34-.21.85 0 1.55.28.69.28 1.16.74m4.31 7.45q-1.07 0-1.64-.61-.58-.6-.58-1.66v-4.59h-.84q-.16 0-.27-.1-.11-.11-.11-.31v-.79l1.32-.21.42-2.24q.04-.16.15-.25t.29-.09h1.02v2.58h2.19v1.41h-2.19v4.45q0 .38.19.6t.51.22q.19 0 .31-.05.13-.04.22-.09l.16-.09q.07-.05.15-.05t.14.05q.06.04.12.13l.59.96q-.43.36-.99.54-.56.19-1.16.19m6.85-8.47q.91 0 1.66.3t1.28.84.82 1.33q.29.78.29 1.75 0 .98-.29 1.76t-.82 1.34q-.53.55-1.28.84-.75.3-1.66.3-.92 0-1.67-.3-.76-.29-1.29-.84-.53-.56-.82-1.34t-.29-1.76q0-.97.29-1.75.29-.79.82-1.33t1.29-.84q.75-.3 1.67-.3m0 6.94q1.02 0 1.51-.69.5-.69.5-2.01 0-1.33-.5-2.03-.49-.69-1.51-.69-1.04 0-1.54.7t-.5 2.02.5 2.01 1.54.69m7.27-6.45.14.65q.24-.25.52-.46t.58-.36q.31-.15.66-.23.36-.09.77-.09.67 0 1.19.23t.87.64.53.99q.18.57.18 1.26v5.22H87.3v-5.22q0-.76-.34-1.17t-1.05-.41q-.51 0-.96.23t-.85.63v5.94h-1.97v-8.21h1.21q.38 0 .5.36m18.21-2.63-.54 1.02q-.09.16-.2.24t-.27.08q-.17 0-.36-.13-.2-.12-.47-.27-.27-.16-.64-.28-.36-.12-.86-.12-.45 0-.78.1-.34.11-.57.3-.22.2-.34.46-.11.27-.11.59 0 .41.23.68t.6.47q.38.19.86.34t.98.32q.51.18.99.4.48.23.85.58.38.35.61.85.23.51.23 1.23 0 .78-.27 1.46-.27.69-.79 1.2-.51.5-1.26.8-.74.29-1.7.29-.55 0-1.09-.11-.53-.11-1.03-.31-.49-.2-.92-.48t-.77-.62l.63-1.03q.08-.12.21-.19.13-.08.27-.08.2 0 .44.17.23.16.55.36t.75.36q.42.17 1.02.17.92 0 1.43-.44.5-.43.5-1.25 0-.46-.23-.74-.22-.29-.6-.49-.38-.19-.86-.33t-.97-.3q-.5-.16-.98-.38t-.85-.58q-.38-.36-.61-.9t-.23-1.34q0-.63.26-1.23.25-.6.73-1.06.48-.47 1.18-.75.71-.28 1.62-.28 1.02 0 1.89.32.86.32 1.47.9m8.17 3.29-.52.72q-.09.11-.18.17-.08.07-.24.07-.15 0-.3-.09-.14-.1-.34-.21-.2-.12-.48-.21-.27-.09-.68-.09-.52 0-.91.19-.39.18-.65.54-.26.35-.39.85t-.13 1.13q0 .66.14 1.17t.4.86q.27.35.64.53.38.18.85.18t.77-.12q.29-.12.49-.26t.35-.25q.14-.12.33-.12.24 0 .36.19l.57.72q-.33.38-.72.64-.38.26-.79.42-.41.15-.85.22-.44.06-.87.06-.76 0-1.43-.28-.67-.29-1.18-.83-.5-.55-.79-1.33-.29-.79-.29-1.8 0-.9.26-1.68.26-.77.76-1.33.5-.57 1.25-.89.74-.32 1.71-.32.92 0 1.61.3t1.25.85m1.37-1.02h1.99v8.21h-1.99zm2.26-2.39q0 .26-.11.48-.1.22-.27.39t-.41.27q-.23.1-.49.1t-.49-.1q-.22-.1-.39-.27t-.27-.39-.1-.48.1-.5q.1-.23.27-.4.17-.16.39-.26.23-.1.49-.1t.49.1q.24.1.41.26.17.17.27.4.11.24.11.5m3.3 5.55h3.73q0-.38-.11-.72t-.32-.6q-.22-.25-.55-.4t-.77-.15q-.86 0-1.35.49t-.63 1.38m5.04 1.19h-5.08q.05.64.23 1.1.17.46.46.76t.68.44q.4.15.88.15t.83-.11.61-.25q.26-.13.45-.25.2-.11.38-.11.25 0 .37.19l.57.72q-.33.38-.74.64t-.85.42q-.44.15-.9.22-.46.06-.9.06-.85 0-1.59-.28-.73-.29-1.28-.84-.54-.56-.85-1.38-.32-.82-.32-1.9 0-.84.28-1.58.27-.74.78-1.29.5-.55 1.24-.87.73-.32 1.65-.32.77 0 1.43.25t1.13.73q.47.47.74 1.16.27.7.27 1.58 0 .45-.1.61-.1.15-.37.15m3.66-3.99.13.65q.25-.25.53-.46.27-.21.58-.36t.66-.23q.35-.09.77-.09.67 0 1.19.23t.87.64.53.99q.18.57.18 1.26v5.22h-1.98v-5.22q0-.76-.34-1.17-.35-.41-1.05-.41-.51 0-.96.23t-.85.63v5.94h-1.97v-8.21h1.2q.39 0 .51.36m10.05 7.98q-1.08 0-1.65-.61-.57-.6-.57-1.66v-4.59h-.84q-.16 0-.27-.1-.11-.11-.11-.31v-.79l1.32-.21.41-2.24q.04-.16.15-.25.12-.09.29-.09h1.03v2.58h2.19v1.41h-2.19v4.45q0 .38.18.6.19.22.52.22.18 0 .31-.05.12-.04.21-.09.1-.05.17-.09.07-.05.14-.05.09 0 .15.05.05.04.12.13l.59.96q-.43.36-.99.54-.56.19-1.16.19m3.28-8.34h1.98v8.21h-1.98zm2.25-2.39q0 .26-.1.48-.11.22-.28.39t-.4.27-.5.1q-.25 0-.48-.1t-.4-.27-.27-.39-.1-.48.1-.5q.1-.23.27-.4.17-.16.4-.26t.48-.1q.27 0 .5.1t.4.26q.17.17.28.4.1.24.1.5m4.3 10.6h-1.98v-6.72l-.71-.11q-.23-.05-.37-.17-.14-.11-.14-.33v-.81h1.22v-.6q0-.71.21-1.27.22-.56.61-.95.4-.39.97-.6.56-.21 1.28-.21.56 0 1.05.15l-.04 1q-.01.11-.06.18-.06.06-.15.1t-.21.05-.26.01q-.35 0-.63.08-.27.07-.46.26-.2.19-.3.5-.1.3-.1.76v.54h2.14v1.41h-2.07zm3.25-8.21h1.98v8.21h-1.98zm2.25-2.39q0 .26-.1.48-.11.22-.28.39t-.4.27-.5.1q-.25 0-.48-.1t-.4-.27-.27-.39-.1-.48.1-.5q.1-.23.27-.4.17-.16.4-.26t.48-.1q.27 0 .5.1t.4.26q.17.17.28.4.1.24.1.5m8.15 3.41-.52.72q-.09.11-.18.17-.08.07-.24.07-.15 0-.3-.09-.14-.1-.34-.21-.2-.12-.48-.21-.27-.09-.68-.09-.52 0-.91.19-.39.18-.65.54-.26.35-.39.85t-.13 1.13q0 .66.14 1.17t.4.86q.27.35.64.53.38.18.85.18t.77-.12q.29-.12.49-.26t.35-.25q.14-.12.33-.12.24 0 .36.19l.57.72q-.33.38-.72.64-.38.26-.79.42-.41.15-.85.22-.44.06-.87.06-.76 0-1.43-.28-.67-.29-1.18-.83-.5-.55-.79-1.33-.29-.79-.29-1.8 0-.9.26-1.68.26-.77.76-1.33.5-.57 1.25-.89.74-.32 1.71-.32.92 0 1.61.3t1.25.85"/></svg>